<?xml version="1.0" encoding="utf-8"?>
<!-- Generator: Adobe Illustrator 17.0.0, SVG Export Plug-In . SVG Version: 6.00 Build 0)  -->
<!DOCTYPE svg PUBLIC "-//W3C//DTD SVG 1.1//EN" "http://www.w3.org/Graphics/SVG/1.1/DTD/svg11.dtd">
<svg version="1.1" id="Layer_1" xmlns="http://www.w3.org/2000/svg" xmlns:xlink="http://www.w3.org/1999/xlink" x="0px" y="0px"
	 width="165px" height="165px" viewBox="0 0 165 165" enable-background="new 0 0 165 165" xml:space="preserve">
<path d="M158.02,84.71c0-6.12-4.08-10.2-16.33-10.2c-28.57,0-40.82,0-36.74-8.16c4.49-8.98,12.25-28.57,12.25-44.9
	c0-8.16-1.84-12.25-8.16-12.25c-8.16,0-12.25,20.41-24.49,36.74C77,56.35,67.81,65.12,57.2,72.06l-1.22,0.61v63.081h-8.83V72.019
	H10.41v81.296h36.74v-4.01l9.157,1.405l0.002-0.003c17.248,4.217,35.093,4.827,52.741,5.433c0,0,16.33,0,24.49,0
	c8.16,0,12.25-4.08,12.25-10.2s-4.08-6.12-4.08-10.2s8.16-4.08,8.16-10.2s-4.08-6.12-4.08-10.2c0-4.08,8.16-4.08,8.16-10.2
	s-4.08-6.12-4.08-10.2C149.87,90.86,158.02,90.84,158.02,84.71z"/>
</svg>
