<?xml version="1.0" encoding="utf-8"?>
<!-- Generator: Adobe Illustrator 17.0.0, SVG Export Plug-In . SVG Version: 6.00 Build 0)  -->
<!DOCTYPE svg PUBLIC "-//W3C//DTD SVG 1.1//EN" "http://www.w3.org/Graphics/SVG/1.1/DTD/svg11.dtd">
<svg version="1.1" xmlns="http://www.w3.org/2000/svg" xmlns:xlink="http://www.w3.org/1999/xlink" x="0px" y="0px" width="165px"
	 height="165px" viewBox="0 0 165 165" enable-background="new 0 0 165 165" xml:space="preserve">
<g id="Layer_1">
	<g>
		<path d="M137.8,63.38c5.79,0,10.51-4.71,10.52-10.51c0-5.8-4.72-10.52-10.52-10.52h-12.6l2.75-13.21c0.57-2.75,0.04-5.56-1.5-7.91
			s-3.9-3.96-6.65-4.53c-0.71-0.14-1.43-0.22-2.15-0.22c-4.95,0-9.27,3.52-10.29,8.37l-3.64,17.49l-23.37,0.01L83.11,29
			c0.58-2.75,0.04-5.56-1.5-7.91s-3.91-3.96-6.65-4.53c-0.71-0.15-1.43-0.23-2.15-0.23c-4.95,0-9.28,3.52-10.29,8.38l-3.67,17.65
			H37.02c-5.79,0-10.51,4.71-10.51,10.52c0,5.79,4.72,10.51,10.52,10.51h17.44l-7.02,33.76H29.2c-5.79,0-10.51,4.71-10.51,10.52
			c0,5.79,4.72,10.51,10.52,10.51h13.88l-3.48,16.69c-1.18,5.67,2.48,11.25,8.16,12.44c0.71,0.14,1.43,0.22,2.15,0.22
			c4.95,0,9.28-3.52,10.29-8.37l4.36-20.98h23.38l-3.5,16.84c-0.57,2.75-0.04,5.56,1.5,7.9c1.54,2.35,3.91,3.96,6.66,4.53
			c0.71,0.15,1.43,0.22,2.14,0.22c4.96,0,9.28-3.52,10.29-8.37l4.39-21.12h20.54c5.79,0,10.51-4.71,10.52-10.51
			c0-5.8-4.72-10.52-10.52-10.52H113.8l7.02-33.75L137.8,63.38L137.8,63.38z"/>
	</g>
</g>
<g id="Layer_2">
	<polygon points="99.33,63.38 92.31,97.13 68.93,97.14 75.95,63.38 	"/>
</g>
</svg>
