<?xml version="1.0" encoding="utf-8"?>
<!-- Generator: Adobe Illustrator 17.0.0, SVG Export Plug-In . SVG Version: 6.00 Build 0)  -->
<!DOCTYPE svg PUBLIC "-//W3C//DTD SVG 1.1//EN" "http://www.w3.org/Graphics/SVG/1.1/DTD/svg11.dtd">
<svg version="1.1" id="Layer_1" xmlns="http://www.w3.org/2000/svg" xmlns:xlink="http://www.w3.org/1999/xlink" x="0px" y="0px"
	 width="165px" height="165px" viewBox="0 0 165 165" enable-background="new 0 0 165 165" xml:space="preserve">
<path d="M139.51,53.27c0.07,1.26,0.09,2.53,0.09,3.8c0,38.87-29.59,83.69-83.69,83.69c-16.61,0-32.07-4.87-45.09-13.21
	c2.29,0.25,4.64,0.41,7.02,0.41c13.78,0,26.46-4.71,36.53-12.6c-12.89-0.23-23.74-8.74-27.49-20.42c1.8,0.34,3.64,0.53,5.52,0.53
	c2.69,0,5.29-0.37,7.75-1.03c-13.46-2.72-23.6-14.59-23.6-28.85c0-0.13,0-0.24,0-0.37c3.97,2.2,8.51,3.52,13.33,3.67
	C22,63.61,16.81,54.6,16.81,44.4c0-5.39,1.45-10.43,3.98-14.78c14.5,17.79,36.18,29.5,60.62,30.72c-0.51-2.14-0.75-4.4-0.75-6.71
	c0-16.23,13.17-29.4,29.4-29.4c8.47,0,16.11,3.57,21.48,9.28c6.69-1.31,12.99-3.76,18.68-7.13c-2.2,6.86-6.87,12.63-12.93,16.27
	c5.94-0.7,11.6-2.28,16.89-4.63C150.24,43.95,145.26,49.12,139.51,53.27z"/>
<g>
</g>
<g>
</g>
<g>
</g>
<g>
</g>
<g>
</g>
</svg>
